<?xml version="1.0" encoding="UTF-8"?>
<svg id="Layer_2" data-name="Layer 2" xmlns="http://www.w3.org/2000/svg" viewBox="0 0 440.53 460.06">
  <defs>
    <style>
      .cls-1 {
        fill: #00a5fe;
        fill-rule: evenodd;
      }
    </style>
  </defs>
  <g id="Layer_1-2" data-name="Layer 1">
    <path class="cls-1" d="M291.16,147.63h0c-6.57,0-11.94,5.37-11.94,11.94v118.22c0,6.57,5.37,11.94,11.94,11.94h0c6.57,0,11.94-5.37,11.94-11.94v-118.22c0-6.57-5.37-11.94-11.94-11.94h0ZM428.6,312.43h0c-6.57,0-11.94-5.37-11.94-11.94v-118.22c0-6.57,5.37-11.94,11.94-11.94h0c6.57,0,11.94,5.37,11.94,11.94v118.22c0,6.57-5.37,11.94-11.94,11.94h0ZM149.37,313.81h0c6.57,0,11.94-5.37,11.94-11.94v-118.22c0-6.57-5.37-11.94-11.94-11.94h0c-6.57,0-11.94,5.37-11.94,11.94v118.22c0,6.57,5.37,11.94,11.94,11.94h0ZM195.96,363.89h0c6.57,0,11.94-5.37,11.94-11.94v-118.22c0-6.57-5.37-11.94-11.94-11.94h0c-6.57,0-11.94,5.37-11.94,11.94v118.22c0,6.57,5.37,11.94,11.94,11.94h0ZM242.55,411.06h0c6.57,0,11.94-5.37,11.94-11.94v-118.22c0-6.57-5.37-11.94-11.94-11.94h0c-6.57,0-11.94,5.37-11.94,11.94v118.22c0,6.57,5.37,11.94,11.94,11.94h0ZM289.41,460.06h0c-6.57,0-11.94-5.37-11.94-11.94v-118.22c0-6.57,5.37-11.94,11.94-11.94h0c6.57,0,11.94,5.37,11.94,11.94v118.22c0,6.57-5.37,11.94-11.94,11.94h0ZM335.42,409.69h0c-6.57,0-11.94-5.37-11.94-11.94v-118.22c0-6.57,5.37-11.94,11.94-11.94h0c6.57,0,11.94,5.37,11.94,11.94v118.22c0,6.57-5.37,11.94-11.94,11.94h0ZM382.01,362.52h0c-6.57,0-11.94-5.37-11.94-11.94v-118.22c0-6.57,5.37-11.94,11.94-11.94h0c6.57,0,11.94,5.37,11.94,11.94v118.22c0,6.57-5.37,11.94-11.94,11.94h0ZM11.94,146.25h0c6.57,0,11.94,5.37,11.94,11.94v118.22c0,6.57-5.37,11.94-11.94,11.94h0c-6.57,0-11.94-5.37-11.94-11.94v-118.22c0-6.57,5.37-11.94,11.94-11.94h0ZM58.53,96.17h0c6.57,0,11.94,5.37,11.94,11.94v118.22c0,6.57-5.37,11.94-11.94,11.94h0c-6.57,0-11.94-5.37-11.94-11.94v-118.22c0-6.57,5.37-11.94,11.94-11.94h0ZM105.11,49h0c6.57,0,11.94,5.37,11.94,11.94v118.22c0,6.57-5.37,11.94-11.94,11.94h0c-6.57,0-11.94-5.37-11.94-11.94V60.94c0-6.57,5.37-11.94,11.94-11.94h0ZM151.98,0h0c-6.57,0-11.94,5.37-11.94,11.94v118.22c0,6.57,5.37,11.94,11.94,11.94h0c6.57,0,11.94-5.37,11.94-11.94V11.94c0-6.57-5.37-11.94-11.94-11.94h0ZM197.98,50.37h0c-6.57,0-11.94,5.37-11.94,11.94v118.22c0,6.57,5.37,11.94,11.94,11.94h0c6.57,0,11.94-5.37,11.94-11.94V62.31c0-6.57-5.37-11.94-11.94-11.94h0ZM244.57,97.54h0c-6.57,0-11.94,5.37-11.94,11.94v118.22c0,6.57,5.37,11.94,11.94,11.94h0c6.57,0,11.94-5.37,11.94-11.94v-118.22c0-6.57-5.37-11.94-11.94-11.94h0Z"/>
  </g>
</svg>